# xmcd
#
# Track frame offsets:
#	150
#	16377
#	36622
#	48442
#	68017
#	87137
#	103697
#	120492
#	137482
#	150545
#	162860
#	180667
#	194112
#	210702
#	227492
#	242920
#	260012
#	275810
#	287985
#	306347
#
# Disc length: 4285 seconds
#
# Revision: 0
# Processed by: cddbd v1.5.1PL0 Copyright (c) Steve Scherf et al.
# Submitted via: audiograbber 1.83.01
#
DISCID=2910bb14
DTITLE=Ruzni - Hity 1980
DYEAR=1980
DGENRE=Ethnic
TTITLE0=K.Gott - To jsou famy
TTITLE1=H.Vondrackova - Leto je leto
TTITLE2=V.Neckar - Mydlovy princ
TTITLE3=M.Rottrova - Hodina H
TTITLE4=V.Vavra - Divka Gloria
TTITLE5=H.Zagorova - Naskok
TTITLE6=P.Spaleny - Hrac
TTITLE7=Olympic - Osmy den
TTITLE8=V.Spinarova - A-B
TTITLE9=L.Staidl - Miluji te
TTITLE10=Kardinalove - Nejkrasnejsi sen
TTITLE11=V.Neckar - Mademoisell Giselle
TTITLE12=M.Rottrova - Stesti
TTITLE13=V.Vavra - Citronova holka
TTITLE14=N.Urbankova - Prazdny expres
TTITLE15=V.Spinarova - Kosmicka laska
TTITLE16=Olympic - Dedeckuv duch
TTITLE17=H.Vondrackova - Kdyz zabloudis, tak zavolej
TTITLE18=P.Spaleny - Obycejny muz
TTITLE19=H.Zagorova+Drupi - Setkani
EXTD=
EXTT0=
EXTT1=
EXTT2=
EXTT3=
EXTT4=
EXTT5=
EXTT6=
EXTT7=
EXTT8=
EXTT9=
EXTT10=
EXTT11=
EXTT12=
EXTT13=
EXTT14=
EXTT15=
EXTT16=
EXTT17=
EXTT18=
EXTT19=
PLAYORDER=
